<svg width="200" height="200" viewBox="0 0 200 200" fill="none" xmlns="http://www.w3.org/2000/svg">
<g id="profile pic">
<g id="Group" opacity="0.5">
<path id="Vector" opacity="0.5" d="M100 200C155.228 200 200 155.228 200 100C200 44.7715 155.228 0 100 0C44.7715 0 0 44.7715 0 100C0 155.228 44.7715 200 100 200Z" fill="url(#paint0_linear)"/>
</g>
<path id="Vector_2" d="M100.195 197.252C154.259 197.252 198.086 153.425 198.086 99.3608C198.086 45.2971 154.259 1.46973 100.195 1.46973C46.1311 1.46973 2.30371 45.2971 2.30371 99.3608C2.30371 153.425 46.1311 197.252 100.195 197.252Z" fill="#F5F5F5"/>
<path id="Vector_3" d="M99.2463 144.547C125.341 144.547 146.496 123.393 146.496 97.2981C146.496 71.2031 125.341 50.0488 99.2463 50.0488C73.1513 50.0488 51.9971 71.2031 51.9971 97.2981C51.9971 123.393 73.1513 144.547 99.2463 144.547Z" fill="#333333"/>
<path id="Vector_4" opacity="0.1" d="M83.9971 136.653H114.272V160.874C114.272 164.888 112.678 168.737 109.84 171.576C107.003 174.414 103.154 176.01 99.1403 176.012V176.012C95.1256 176.012 91.2753 174.417 88.4365 171.578C85.5976 168.739 84.0028 164.889 84.0028 160.874V136.653H83.9971Z" fill="black"/>
<path id="Vector_5" opacity="0.1" d="M68.335 67.2437C68.335 67.2437 86.6244 104.367 138.215 82.8082L126.203 63.9743L104.911 56.3325L68.335 67.2437Z" fill="black"/>
<path id="Vector_6" d="M55.8341 114.246C58.0638 114.246 59.8714 110.857 59.8714 106.676C59.8714 102.495 58.0638 99.106 55.8341 99.106C53.6044 99.106 51.7969 102.495 51.7969 106.676C51.7969 110.857 53.6044 114.246 55.8341 114.246Z" fill="#BE7C5E"/>
<path id="Vector_7" d="M142.636 114.246C144.866 114.246 146.673 110.857 146.673 106.676C146.673 102.495 144.866 99.106 142.636 99.106C140.406 99.106 138.599 102.495 138.599 106.676C138.599 110.857 140.406 114.246 142.636 114.246Z" fill="#BE7C5E"/>
<path id="Vector_8" d="M60.9935 106.452C60.9935 106.452 49.6571 162.221 43.4688 159.132C43.4688 159.132 103.148 210.605 155.846 159.132C155.846 159.132 146.563 119.831 133.164 106.452H60.9935Z" fill="#333333"/>
<path id="Vector_9" d="M99.2465 150.112C123.213 150.112 142.642 130.683 142.642 106.716C142.642 82.7496 123.213 63.3208 99.2465 63.3208C75.2799 63.3208 55.8511 82.7496 55.8511 106.716C55.8511 130.683 75.2799 150.112 99.2465 150.112Z" fill="#BE7C5E"/>
<path id="Vector_10" d="M100.287 197.639C119.415 197.67 138.129 192.07 154.095 181.536C150.487 161.822 136.76 160.699 136.76 160.699H61.0576C61.0576 160.699 48.1035 161.762 44.0576 179.897C60.5187 191.476 80.1613 197.674 100.287 197.639V197.639Z" fill="#6C63FF"/>
<path id="Vector_11" d="M68.335 66.6991C68.335 66.6991 86.6244 103.822 138.215 82.2579L126.203 63.4241L104.911 55.7822L68.335 66.6991Z" fill="#333333"/>
<path id="Vector_12" opacity="0.1" d="M84.0513 148.086C93.8086 151.732 104.549 151.761 114.326 148.169V144.444H84.0513V148.086Z" fill="black"/>
<path id="Vector_13" d="M84.9571 135.53H113.324C113.578 135.53 113.823 135.631 114.003 135.811C114.183 135.991 114.284 136.236 114.284 136.49V159.751C114.284 161.74 113.893 163.709 113.132 165.546C112.371 167.383 111.255 169.053 109.849 170.459C108.443 171.865 106.773 172.98 104.936 173.74C103.098 174.501 101.129 174.892 99.1405 174.891V174.891C95.1257 174.891 91.2754 173.296 88.4366 170.458C85.5978 167.619 84.0029 163.768 84.0029 159.754V136.49C84.0029 136.237 84.1033 135.993 84.282 135.813C84.4608 135.634 84.7035 135.532 84.9571 135.53V135.53Z" fill="#BE7C5E"/>
<path id="Vector_14" d="M58.2798 90.4398H142.818C142.818 90.4398 135.598 56.3588 103.643 58.5329C71.6878 60.7069 58.2798 90.4398 58.2798 90.4398Z" fill="#333333"/>
</g>
<defs>
<linearGradient id="paint0_linear" x1="100" y1="200" x2="100" y2="0" gradientUnits="userSpaceOnUse">
<stop stop-color="#400080" stop-opacity="0.25"/>
<stop offset="0.54" stop-color="#400080" stop-opacity="0.12"/>
<stop offset="1" stop-color="#400080" stop-opacity="0.1"/>
</linearGradient>
</defs>
</svg>
