<?xml version="1.0" encoding="utf-8"?>
<!-- Generator: Adobe Illustrator 22.0.0, SVG Export Plug-In . SVG Version: 6.00 Build 0)  -->
<svg version="1.1" id="Layer_1" xmlns="http://www.w3.org/2000/svg" xmlns:xlink="http://www.w3.org/1999/xlink" x="0px" y="0px"
	 viewBox="0 0 300 300" style="enable-background:new 0 0 300 300;" xml:space="preserve">
<style type="text/css">
	.st0{opacity:0.5;}
	.st1{fill:url(#SVGID_1_);}
	.st2{opacity:0.1;enable-background:new    ;}
	.st3{fill:#F5F5F5;}
	.st4{fill:#6C63FF;}
	.st5{fill:#333333;}
	.st6{fill:#FDB797;}
</style>
<g class="st0">
	
		<linearGradient id="SVGID_1_" gradientUnits="userSpaceOnUse" x1="149.89" y1="36.38" x2="149.89" y2="268.16" gradientTransform="matrix(1 0 0 -1 0 302)">
		<stop  offset="0" style="stop-color:#400080;stop-opacity:0.25"/>
		<stop  offset="0.54" style="stop-color:#400080;stop-opacity:0.12"/>
		<stop  offset="1" style="stop-color:#400080;stop-opacity:0.1"/>
	</linearGradient>
	<circle class="st1" cx="149.9" cy="149.7" r="115.9"/>
</g>
<path class="st2" d="M131.3,192.2h35.1l0,0v28.1c0,9.7-7.9,17.5-17.5,17.5h0l0,0c-9.7,0-17.5-7.9-17.5-17.5l0,0L131.3,192.2
	L131.3,192.2z"/>
<path class="st2" d="M131.4,205.5c11.3,4.2,23.8,4.3,35.1,0.1v-4.3h-35.1V205.5z"/>
<path class="st2" d="M113.2,111.8c0,0,21.2,43,81,18l-13.9-21.8l-24.7-8.9L113.2,111.8z"/>
<g>
	<circle class="st3" cx="148.8" cy="149" r="113.4"/>
	<path class="st4" d="M148.9,262.9c22.2,0,43.8-6.5,62.4-18.7c-4.2-22.8-20.1-24.1-20.1-24.1h-87.8c0,0-15,1.2-19.7,22.2
		C102.8,255.7,125.6,262.9,148.9,262.9z"/>
	<circle class="st5" cx="147.7" cy="146.6" r="54.8"/>
	<path class="st6" d="M133.4,190.9h28.4c1.9,0,3.4,1.5,3.4,3.4l0,0V219c0,9.7-7.9,17.5-17.5,17.5l0,0l0,0c-9.7,0-17.5-7.8-17.6-17.5
		c0,0,0,0,0,0v-24.8C130,192.4,131.5,190.9,133.4,190.9C133.4,190.9,133.4,190.9,133.4,190.9L133.4,190.9z"/>
	<circle class="st6" cx="147.7" cy="157.5" r="50.3"/>
	<path class="st5" d="M111.9,111.1c0,0,21.2,43,81,18L179,107.3l-24.7-8.9L111.9,111.1z"/>
	<path class="st5" d="M111.7,108.2c1.4-4.4,3.9-8.4,7.2-11.7c9.9-9.8,26.1-11.8,34.4-23c1.8,3.1,0.7,7.1-2.4,8.9
		c-0.2,0.1-0.4,0.2-0.6,0.3c8,0,17.2-0.8,21.7-7.3c2.3,5.3,1.3,11.4-2.5,15.7c7.1,0.3,14.6,5.1,15.1,12.2c0.3,4.7-2.6,9.1-6.5,11.9
		s-8.5,3.9-13.1,5C151.5,123.1,102.9,135.5,111.7,108.2z"/>
	<ellipse class="st6" cx="97.4" cy="157.5" rx="4.7" ry="8.8"/>
	<ellipse class="st6" cx="198" cy="157.5" rx="4.7" ry="8.8"/>
</g>
</svg>
