<svg width="1781" height="2054" viewBox="0 0 1781 2054" fill="none" xmlns="http://www.w3.org/2000/svg">
<path d="M915.3 0.256952C833.7 4.75695 763.3 18.657 685.8 45.357C570.8 85.057 458.6 153.657 361.8 243.357C346.8 257.257 313.5 290.657 300.8 304.657C275.6 332.357 236.9 379.657 233.2 387.457C224.4 406.157 241.7 426.357 261.5 420.457C266.7 418.957 273.2 413.057 280.1 403.757C288.5 392.257 306 370.857 320.2 354.657C472.1 180.457 670.1 72.257 875.8 51.257C923.5 46.357 978.4 46.357 1025.3 51.157C1147.6 63.957 1264.2 108.357 1367.3 181.657C1449.5 240.057 1523.1 318.357 1580.5 408.657C1610.4 455.657 1639.9 513.557 1660.8 566.657C1672.8 596.957 1685.5 634.857 1694.2 666.157C1698.8 682.657 1705.6 710.657 1705.2 711.057C1705 711.257 1692.9 713.457 1678.3 716.057C1663.7 718.657 1636.1 723.657 1616.8 727.157C1597.6 730.757 1553 738.857 1517.8 745.157C1305 783.657 1249.5 793.957 1246.3 795.457C1242.8 797.157 1217.8 823.457 1214.2 829.157C1212.9 831.257 1212.3 834.057 1212.3 838.657C1212.3 842.257 1214.6 877.757 1217.3 917.657C1220.1 957.557 1224.1 1014.56 1226.1 1044.46L1229.9 1098.76L1227.6 1100.86C1226.4 1102.06 1225.1 1103.76 1224.8 1104.66C1224.4 1105.76 1222.8 1106.66 1220.3 1107.06C1212.7 1108.26 1207.2 1116.06 1207 1125.76C1206.9 1133.96 1213 1141.06 1220.1 1141.06C1222.1 1141.06 1270.6 1131.96 1327.8 1120.76C1385 1109.66 1457.2 1095.66 1488.3 1089.66C1519.4 1083.66 1585.8 1070.86 1635.9 1061.26C1685.9 1051.56 1727.5 1043.66 1728.2 1043.66C1729.9 1043.66 1729.3 1054.86 1726.2 1082.16C1707.4 1248.56 1654.7 1406.06 1570.8 1546.16C1510.6 1646.76 1434.6 1736.16 1348.3 1808.06C1326.6 1826.16 1311.1 1837.96 1310.2 1836.96C1309.8 1836.56 1305.6 1826.06 1300.8 1813.66C1283 1768.06 1268.2 1734.86 1247.4 1694.16C1200.4 1602.06 1149.4 1529.76 1088.8 1469.06C1043.8 1424.06 1001.2 1392.76 952 1368.56L934.1 1359.86L944.5 1354.66C965.2 1344.16 983.9 1332.26 1001.8 1317.96C1015.1 1307.36 1039.2 1283.66 1049.8 1270.66C1088.3 1223.56 1113.8 1167.06 1123.1 1108.16C1130.1 1064.46 1128.4 1020.76 1118.3 979.157C1091.2 868.257 1007.2 784.957 899.6 762.257C879.5 758.057 863.7 756.457 841.3 756.457C782.7 756.357 725.7 773.857 675.1 807.557C598.4 858.657 545.3 940.857 530.4 1031.86C526.8 1054.26 526 1063.96 526 1086.66C526 1122.46 530.5 1152.26 541 1185.16C562.5 1252.36 608.8 1311.66 666.8 1346.16C673.1 1349.96 678.3 1353.26 678.3 1353.56C678.3 1353.86 673.3 1356.16 667.1 1358.66C654.3 1363.86 628.6 1377.26 613.5 1386.76C585 1404.56 559.7 1425.16 530.3 1454.66C497.7 1487.16 474.7 1515.46 448 1555.76C400.6 1627.46 364.2 1704.66 331.7 1802.56C330.8 1805.36 291.2 1764.36 266.6 1734.96C215.1 1673.66 169.2 1599.66 135.8 1524.16C127 1504.16 126.4 1502.76 119.7 1485.76C62.4 1340.86 38.3 1174.96 50.8 1011.16C59.7 893.757 85.5 781.557 128.7 671.257C140.4 641.657 160.2 597.657 165.2 590.257C167.5 586.857 193.9 536.957 212.3 500.957C218 489.857 218.9 485.157 216.7 477.657C213.7 467.657 204.5 460.657 194.3 460.657C182.6 460.657 177.2 465.557 166.3 486.357C161.8 495.057 157.5 502.857 156.8 503.657C154.7 506.157 148.2 517.957 135.2 542.657C62.7 680.957 17.2 838.657 3.9 998.157C-1.3 1060.26 -1.3 1132.46 3.9 1194.06C18.3 1364.96 70.4 1526.26 155.1 1662.16C259.8 1830.06 409.7 1952.56 583.3 2012.06C647 2033.96 706.4 2045.96 779.3 2051.86C802 2053.66 862.2 2053.36 887.3 2051.26C1098.8 2034.06 1296.6 1937.16 1456.8 1772.56C1619.5 1605.36 1729 1381.66 1766.7 1139.66C1785.7 1017.76 1785.5 891.357 1766.2 772.657C1741.6 620.757 1687 480.357 1606.6 361.457C1501.7 206.357 1357.1 94.157 1190.3 38.357C1134.3 19.557 1075 7.35695 1013.9 2.05695C997.8 0.656952 930.3 -0.543048 915.3 0.256952ZM1711.7 739.357C1712 740.357 1713.3 747.257 1714.7 754.657C1724.8 810.357 1729.8 855.457 1732.4 915.157C1733.5 941.357 1733.4 992.857 1732.2 994.057C1731.7 994.657 1705.8 1000.06 1600.3 1021.66C1579.1 1025.96 1516.6 1038.76 1461.3 1050.16C1244.8 1094.56 1258.2 1091.86 1257.8 1091.46C1257.5 1091.16 1253 1028.16 1243.2 885.957L1240 840.757L1249.8 830.157C1255.2 824.357 1259.9 819.657 1260.4 819.657C1261.2 819.657 1496.7 776.957 1549.8 767.157C1563 764.757 1584.2 760.957 1596.8 758.657C1643.3 750.257 1700.9 739.757 1704.8 738.757C1710.6 737.457 1711.1 737.457 1711.7 739.357ZM864.6 784.757C887.1 786.657 918.4 794.257 937.8 802.357C1007.1 831.457 1059.5 888.157 1084.6 961.657C1107.5 1028.56 1104.4 1106.96 1076.2 1174.06C1060.1 1212.36 1040.5 1242.06 1011.8 1271.56C980.4 1303.86 940.5 1329.86 902.1 1343.06L894.4 1345.76L885.6 1343.16C865.4 1337.46 840.4 1333.26 815.3 1331.56C787.1 1329.66 753.3 1332.76 724.3 1339.76L715.7 1341.76L709.8 1338.26C706.6 1336.26 703.5 1334.66 703 1334.66C701.5 1334.66 682.3 1323.76 672.3 1317.26C652 1303.96 628.7 1282.66 613.2 1263.16C582.5 1224.56 562.9 1177.76 555.6 1125.56C553.2 1108.16 553.2 1064.96 555.6 1048.16C566.1 975.657 596 915.657 646 866.557C695.9 817.457 752.7 790.957 822.3 784.357C830.6 783.557 853.4 783.757 864.6 784.757ZM822.3 1359.66C847.2 1361.86 870 1366.56 894.4 1374.66C943 1390.66 987 1416.16 1034.8 1456.06C1050 1468.66 1088.6 1507.26 1102.5 1523.66C1167.3 1599.86 1218.5 1686.06 1264.6 1796.66C1270.9 1811.76 1287.4 1854.96 1287 1855.26C1279.8 1860.76 1241.5 1885.36 1225.3 1894.86C1015.6 2017.26 778.3 2039.16 568.1 1955.56C535.1 1942.46 499.8 1925.26 470.3 1908.06C441.3 1891.16 405.1 1866.26 380.5 1846.46C358.8 1828.96 354.4 1825.06 354.4 1823.16C354.3 1822.06 357.2 1812.46 360.8 1801.86C405.3 1669.86 464.7 1563.86 538.2 1485.16C601 1417.96 674.5 1375.26 748.8 1362.76C771.7 1358.86 799.7 1357.66 822.3 1359.66Z" fill="#435F79"/>
<path d="M1625.7 772.057C1621 774.157 1618.3 778.157 1618.3 783.257C1618.3 787.157 1619 788.357 1626.3 797.057C1630.8 802.357 1635.7 807.357 1637.3 808.157C1644.5 811.857 1653.1 808.157 1654.8 800.457C1656 795.257 1653.2 789.557 1645.3 781.257C1638.5 774.057 1633.5 770.557 1630.1 770.657C1629.4 770.757 1627.4 771.357 1625.7 772.057Z" fill="#5CB86D"/>
<path d="M1595.6 779.057C1589.6 781.757 1587 788.957 1590 794.357C1598.2 809.157 1602.2 815.957 1607 822.957C1610 827.457 1614.3 834.457 1616.5 838.357C1622.1 848.557 1627.1 851.657 1634.5 849.557C1636.5 849.057 1639.3 847.257 1640.7 845.557C1646.4 838.757 1643.3 828.557 1629.9 810.557C1626.4 805.857 1621 797.657 1617.9 792.357C1614.8 787.057 1611 781.857 1609.4 780.757C1605.6 778.057 1599.6 777.257 1595.6 779.057Z" fill="#5CB86D"/>
<path d="M1209.2 174.057C1209 174.257 1183.6 174.657 1152.8 175.057C1122 175.357 1077 175.957 1052.8 176.257L1008.8 176.957L1003.2 179.757C990.5 186.057 988.3 189.657 988.3 203.857C988.3 209.557 986.5 254.857 984.3 304.657C982.1 354.457 979.4 416.057 978.3 441.657C975.2 512.657 974.5 527.057 973.8 528.857C973.4 529.957 974 531.457 975.7 533.157L978.2 535.657H1129.2C1297.1 535.657 1283.3 536.257 1283.3 528.857C1283.3 517.657 1295.4 213.257 1295.9 211.157C1296.3 209.557 1295.9 207.657 1294.9 206.157C1293.3 203.757 1292.8 203.657 1283.7 203.657H1274.2L1274.9 192.257C1275.8 177.757 1275.3 176.057 1270.5 174.757C1267.1 173.757 1210.2 173.157 1209.2 174.057ZM1264.3 190.357C1264.3 193.557 1264 197.857 1263.7 199.957L1263 203.757L1134.4 203.057C1001.9 202.357 1002.1 202.357 999.8 198.657C998.4 196.357 1000.7 193.557 1006.6 190.657L1012.8 187.657L1104.3 186.257C1154.6 185.557 1211.2 184.857 1230.1 184.757L1264.3 184.657V190.357ZM1284 214.957C1284.4 215.457 1273.7 502.857 1272.7 516.357L1272.1 524.657H1128.7H985.2L985.8 514.857C986.4 505.857 989.6 431.157 995.8 287.157C997.2 254.657 998.6 224.857 998.9 220.757L999.5 213.357L1141.5 213.957C1219.6 214.257 1283.7 214.757 1284 214.957Z" fill="#5CB86D"/>
<path d="M562.3 293.657C519.2 299.657 491.2 341.857 507.3 376.457C510.9 384.157 520.3 394.257 527.6 398.157C530.4 399.657 532.9 401.057 533 401.057C533.1 401.157 533.9 408.357 534.8 417.157C536.7 435.857 538.2 440.857 542.1 441.457C543.2 441.657 544.3 442.657 544.6 443.757C545 445.257 546 445.657 549.2 445.657C551.5 445.657 554.4 446.357 555.6 447.157C559 449.357 572.1 447.357 574.8 444.157C576.1 442.557 578.1 441.657 580.8 441.457C583.8 441.257 585 440.557 585.8 438.957C586.3 437.657 588 436.257 589.6 435.657C591.8 434.957 592.4 434.157 592.1 432.457C591.9 431.157 592.6 429.357 593.6 428.357C595.1 426.857 595.3 424.557 595.3 410.357L595.4 394.157L602 388.657C609.5 382.457 617.8 371.157 621.4 362.057C623.4 356.957 623.7 354.357 623.8 343.157C623.8 330.157 623.8 330.157 620 322.257C613.8 309.257 601.3 298.957 587.2 295.357C579.9 293.457 569 292.657 562.3 293.657ZM579.9 304.757C602.3 308.857 616.8 328.057 613.4 349.057C612.7 352.857 610.9 358.857 609.2 362.357C606 369.157 597 379.557 590.4 384.057C588.2 385.557 586.1 387.557 585.6 388.457C585.2 389.457 584.6 396.857 584.3 405.157L583.8 420.157L577 421.057C573.3 421.557 570 421.657 569.7 421.357C569.2 420.857 563.3 367.857 563.3 363.657C563.3 361.557 565.1 360.057 573.9 354.357C582.6 348.757 584.4 347.157 584.1 345.357C583.5 341.257 579.9 342.157 568.4 349.557C562.4 353.357 557.2 356.257 556.9 355.957C556.2 355.157 539.4 351.757 536.1 351.657C534.2 351.657 533.2 352.257 532.7 353.857C531.7 356.957 534 358.157 544.8 360.257C550 361.257 554.7 362.257 555.2 362.657C556 363.057 562.3 415.757 562.3 421.757C562.3 423.157 560.9 423.557 555.3 424.157C551.5 424.557 548 424.857 547.6 424.757C546.6 424.757 544.5 408.957 544.4 401.057C544.3 394.257 543.2 392.657 537.3 390.757C525.4 386.857 515.3 373.457 513.7 359.157C511.4 339.857 527.6 316.457 548.7 308.357C560.1 304.057 569.8 302.857 579.9 304.757Z" fill="#435F79"/>
<path d="M215.5 430.757C212.7 432.157 210.4 434.357 208.8 437.157C199.4 453.057 219.7 467.957 233.8 455.557C240.1 449.957 240.9 440.857 235.6 434.557C230.5 428.557 222.9 427.057 215.5 430.757Z" fill="#5CB86D"/>
<path d="M358.3 581.157C336.7 585.157 318.9 601.157 310.9 623.657C309 628.857 303 642.357 297.6 653.657C287.7 673.957 284.3 680.957 273.3 704.157C266 719.357 258.8 734.457 245.8 761.657C240.1 773.457 232.7 788.957 229.3 796.157C225.9 803.257 218.2 819.257 212.3 831.657C189.4 879.557 173.9 911.957 157.6 946.157C126.3 1011.56 110.6 1043.96 105.4 1053.66C99.7 1064.26 99.9 1062.66 99.3 1100.16C98.9 1125.76 99 1135.96 99.9 1138.26C101.4 1142.16 105.3 1145.26 109.7 1146.06C113.9 1146.86 117.4 1145.66 141.3 1135.16C150.9 1130.86 162.9 1125.76 167.8 1123.66C197.7 1110.96 196.3 1111.86 200.3 1103.16C203.2 1096.76 223.2 1054.96 242.8 1014.16C246.5 1006.46 256.7 985.057 265.5 966.657C274.3 948.257 284.5 927.057 288 919.657C302.4 889.857 305.8 882.757 310.3 873.157C312.9 867.657 318.1 856.857 321.8 849.157C329.4 833.357 333.4 825.057 356.1 777.657C376.8 734.357 382.8 721.757 392.5 701.657C402 681.957 404.3 676.457 404.3 673.057C404.3 671.657 405.7 668.557 407.4 666.057C414 656.457 418.3 643.157 418.3 631.957C418.4 599.057 390.3 575.257 358.3 581.157ZM378.9 610.457C383.8 612.957 385.6 614.957 388.2 620.657C391.8 628.557 390.4 642.957 385.3 649.657L383.5 651.957L378.7 649.957C376 648.757 367.5 644.757 359.8 641.157C352.1 637.457 343.9 633.557 341.5 632.557L337.2 630.657L339.3 626.657C347.2 611.057 365.5 603.657 378.9 610.457ZM350.1 666.757C362 672.357 372.1 677.257 372.6 677.657C373 677.957 369.5 686.357 364.7 696.257C360 706.057 354.2 718.157 351.8 723.157C349.4 728.057 344.5 738.457 340.8 746.157C337.1 753.857 329.7 769.357 324.3 780.657C318.9 791.957 311 808.357 306.8 817.157C302.5 825.957 292.2 847.557 283.8 865.157C275.4 882.757 265 904.357 260.8 913.157C256.6 921.957 246.4 943.057 238.3 960.157C230.2 977.157 219.1 1000.36 213.6 1011.66C208.2 1022.96 198.6 1043.06 192.3 1056.36C186 1069.66 180.6 1080.56 180.3 1080.66C179.8 1080.66 137.2 1055.86 136.4 1055.06C136 1054.66 139.8 1046.56 157.6 1009.66C162.5 999.457 168.2 987.557 170.3 983.157C174.2 974.757 184.6 952.957 212.3 895.157C246.8 823.157 252.6 811.057 273.3 767.657C278.9 755.857 287.5 737.857 292.4 727.757C297.3 717.657 301.3 709.257 301.3 709.157C301.3 708.957 305.6 700.057 310.8 689.257C316 678.557 321.6 666.757 323.2 663.157C324.8 659.557 326.7 656.657 327.3 656.657C327.9 656.657 338.2 661.257 350.1 666.757ZM143.6 1091.16C150 1094.96 155.3 1098.36 155.3 1098.66C155.3 1099.36 129.5 1110.66 128.1 1110.66C127.6 1110.66 127.3 1104.06 127.3 1096.06V1081.46L129.6 1082.86C130.8 1083.66 137.1 1087.36 143.6 1091.16Z" fill="#5CB86D"/>
<path d="M235.3 1224.26C226.1 1225.76 220.9 1227.26 214.8 1230.16C182.5 1245.06 164.4 1283.06 166.8 1330.66C168.1 1356.76 179.5 1393.56 194.6 1420.16C207.9 1443.76 224.2 1462.36 242 1474.46C255.5 1483.56 266.6 1487.56 280.8 1488.36C298.8 1489.36 310.5 1484.56 324.3 1470.66C334.1 1460.86 340.1 1450.46 345.1 1434.66C352.8 1410.36 353.6 1375.26 347.2 1343.86C343.5 1325.76 334.9 1300.26 328.4 1288.16C327.3 1285.96 326.3 1283.66 326.3 1282.96C326.3 1280.56 314 1263.56 306.5 1255.56C292.8 1240.96 277.6 1231.16 261.5 1226.76C254.3 1224.76 240.2 1223.46 235.3 1224.26ZM254.1 1236.26C269.1 1239.36 283.6 1247.76 296.8 1261.06C303.7 1267.96 313.3 1280.46 313.3 1282.36C313.3 1282.86 301.1 1288.06 286.1 1293.76C271.2 1299.46 258.7 1304.26 258.4 1304.36C257.8 1304.66 255.1 1298.46 246.1 1276.66C244 1271.46 240.7 1262.36 238.9 1256.56C237 1250.76 234.4 1243.76 232.9 1240.86L230.3 1235.76L233.6 1235.36C240.8 1234.46 246.8 1234.76 254.1 1236.26ZM223.5 1244.36C224.9 1247.06 227.1 1252.76 228.3 1257.16C230.7 1265.96 237.6 1284.76 241.8 1294.06C245.6 1302.56 247.3 1308.06 246.5 1308.76C244.6 1310.26 179.2 1334.66 178.3 1334.16C177 1333.36 177 1314.86 178.4 1305.16C181.3 1284.36 188.8 1266.76 200 1254.66C206.3 1247.76 217.1 1239.66 219.8 1239.66C220.4 1239.66 222.1 1241.76 223.5 1244.36ZM322.3 1300.86C327.4 1312.26 334 1333.46 336.7 1346.86C349.6 1410.76 331.9 1466.46 295.9 1476.16C257 1486.66 209.2 1442.56 187.4 1376.06C182.8 1362.16 179.3 1347.26 180.4 1346.16C181.3 1345.36 315.8 1293.76 317.4 1293.76C318.5 1293.66 320.1 1296.16 322.3 1300.86Z" fill="#435F79"/>
<path d="M1466.3 1247.66C1445.2 1248.66 1362.9 1251.36 1300.3 1253.16C1238.2 1254.96 1237.2 1255.06 1233.3 1258.36C1230.4 1260.76 1230.3 1261.26 1230.3 1268.46C1230.3 1272.76 1231 1284.66 1231.8 1295.16C1233.9 1323.56 1235.1 1340.36 1236.8 1369.66C1237.7 1384.26 1238.6 1396.76 1238.8 1397.46C1239.1 1398.16 1239.9 1411.56 1240.8 1427.26C1241.6 1442.96 1242.8 1460.86 1243.3 1466.96C1243.9 1473.16 1245 1489.66 1245.8 1503.66C1246.6 1517.66 1247.8 1534.96 1248.3 1542.16C1248.9 1549.26 1249.8 1561.66 1250.4 1569.66C1251.1 1579.86 1251.8 1584.56 1252.9 1585.76C1255.2 1588.36 1265.8 1588.66 1423.8 1591.16C1437.6 1591.36 1460.7 1591.86 1475.3 1592.26C1495.3 1592.76 1502.8 1592.66 1505.6 1591.76C1512.5 1589.46 1512.4 1590.76 1510.2 1538.16C1509.2 1512.26 1506.5 1442.96 1504.4 1384.16C1499.8 1261.36 1499.6 1256.56 1498.4 1253.36C1497 1249.76 1491 1246.66 1486 1246.86C1483.7 1246.96 1474.8 1247.36 1466.3 1247.66ZM1491.2 1290.36C1491.8 1308.46 1492.8 1332.86 1493.4 1344.66C1494 1356.46 1494.6 1370.16 1494.8 1375.16C1494.9 1380.06 1495.8 1401.26 1496.7 1422.16C1502.2 1551.46 1502.3 1554.26 1500.3 1560.06C1499.3 1562.96 1497.8 1566.76 1496.9 1568.46L1495.3 1571.56L1404.6 1570.96C1354.6 1570.66 1303.2 1570.16 1290.3 1569.76L1266.8 1569.16L1263.6 1564.46C1258.3 1556.36 1257.6 1553.06 1255.9 1524.16C1255 1509.26 1253.8 1490.66 1253.3 1482.66C1252.7 1474.66 1251.6 1457.36 1250.8 1444.16C1250 1430.96 1248.9 1414.06 1248.4 1406.66C1247.8 1399.26 1246.9 1384.56 1246.3 1374.16C1245.7 1363.66 1244.6 1345.96 1243.7 1334.66C1241.2 1300.46 1239.5 1267.16 1240.3 1266.36C1240.7 1265.96 1253.5 1265.16 1268.9 1264.66C1284.2 1264.16 1307.4 1263.26 1320.3 1262.76C1333.2 1262.16 1346.1 1261.66 1348.8 1261.66C1351.6 1261.56 1379 1260.66 1409.8 1259.66C1440.6 1258.76 1471.2 1257.86 1477.9 1257.76L1489.9 1257.66L1491.2 1290.36ZM1373.3 1576.66C1375.9 1579.26 1375.8 1581.06 1373.1 1583.66C1370.6 1585.96 1369.5 1586.06 1365.9 1584.66C1361.1 1582.86 1363.9 1574.66 1369.3 1574.66C1370.4 1574.66 1372.2 1575.56 1373.3 1576.66Z" fill="#5CB86D"/>
<path d="M1362.3 1267.06C1360.7 1269.06 1361.4 1272.66 1363.6 1274.06C1367.5 1276.46 1371.5 1269.66 1367.7 1266.96C1365.4 1265.26 1363.8 1265.36 1362.3 1267.06Z" fill="#435F79"/>
<path d="M1427.8 1276.26C1425.1 1276.46 1385.5 1277.26 1339.8 1278.16C1261.4 1279.76 1256.7 1279.96 1254.1 1281.76C1252.6 1282.76 1250.9 1283.66 1250.4 1283.66C1248.1 1283.66 1247.5 1287.46 1248.4 1298.16C1248.9 1304.16 1249.9 1320.66 1250.8 1334.66C1251.6 1348.66 1252.7 1364.86 1253.3 1370.66C1253.8 1376.46 1254.7 1389.66 1255.3 1400.16C1255.8 1410.56 1256.9 1427.46 1257.7 1437.66C1258.6 1447.86 1259.7 1464.46 1260.3 1474.66C1260.9 1484.86 1261.8 1497.86 1262.3 1503.66C1262.8 1509.46 1263.7 1523.56 1264.4 1535.16C1265 1546.66 1265.9 1557.16 1266.4 1558.26L1267.2 1560.46L1352 1560.56C1398.6 1560.66 1444.5 1560.86 1453.8 1561.16C1463.2 1561.46 1474.8 1561.36 1479.8 1560.96L1488.7 1560.16L1489.6 1556.36C1490.5 1552.66 1488.2 1492.36 1484.7 1429.16C1484 1414.86 1482.2 1378.36 1480.9 1348.16C1477.8 1279.76 1478 1281.96 1474.6 1278.46L1471.9 1275.66L1452.4 1275.86C1441.6 1275.96 1430.6 1276.16 1427.8 1276.26ZM1468.7 1291.86C1469 1295.36 1469.7 1310.56 1470.3 1325.66C1470.9 1340.76 1471.6 1354.06 1471.8 1355.26C1472.1 1356.36 1473.4 1382.26 1474.8 1412.76C1476.2 1443.26 1477.7 1473.36 1478.2 1479.66C1478.7 1485.96 1479.1 1491.86 1479.1 1492.66C1479 1495.76 1481.3 1543.36 1481.8 1547.96L1482.2 1552.76L1385 1552.26C1331.5 1551.96 1284.8 1551.76 1281.1 1551.66H1274.4L1273.9 1546.36C1273 1536.76 1271.2 1511.36 1269.8 1488.16C1266.5 1434.66 1264.3 1399.96 1263.8 1397.16C1263.5 1395.56 1262.9 1384.66 1262.3 1373.16C1261.7 1361.56 1260.6 1344.26 1259.8 1334.66C1259.1 1325.06 1258.2 1311.06 1257.8 1303.56L1257.2 1289.86L1278.5 1289.26C1299.6 1288.56 1309.5 1288.36 1392.8 1287.06C1416.5 1286.76 1436 1286.26 1436.2 1286.06C1436.4 1285.86 1443.7 1285.66 1452.4 1285.66H1468.1L1468.7 1291.86Z" fill="#435F79"/>
<path d="M1238.3 1265.66L1495.8 1254.66L1505.3 1577.54L1378.8 1569.66L1255.8 1577.54L1238.3 1265.66Z" fill="#435F79"/>
<rect x="541.521" y="401.037" width="45" height="28" transform="rotate(-8.26494 541.521 401.037)" fill="#C9F5C0"/>
<ellipse cx="563.8" cy="351.157" rx="53.5" ry="51.5" fill="#C9F5C0"/>
<ellipse cx="261.1" cy="1354.69" rx="128.707" ry="81" transform="rotate(72.4933 261.1 1354.69)" fill="#C9F5C0"/>
<ellipse cx="822.3" cy="1070.16" rx="288" ry="299.5" fill="#435F79"/>
<path d="M1285.8 1852.16C1241.3 2006.66 1042.3 1975.16 810.8 2014.66C594.3 1971.16 354.3 1986.86 354.3 1805.16C354.3 1623.46 600.022 1335.66 806.3 1335.66C1012.58 1335.66 1285.8 1670.46 1285.8 1852.16Z" fill="#435F79"/>
<rect x="117.3" y="1073.66" width="43" height="42" fill="#C9F5C0"/>
<rect x="351.927" y="587.657" width="59.5015" height="58" transform="rotate(26.2211 351.927 587.657)" fill="#C9F5C0"/>
<rect x="999.3" y="183.657" width="268" height="20" fill="#C9F5C0"/>
<path d="M997.3 210.157L1285.3 213.657L1274.8 526.657L983.8 526.657L997.3 210.157Z" fill="#C9F5C0"/>
<rect x="326.57" y="647.169" width="59.0635" height="453.754" transform="rotate(25.7791 326.57 647.169)" fill="#C9F5C0"/>
<path d="M1254.3 1290.66L1468.3 1282.66L1483.3 1555.72L1274.3 1555.72L1254.3 1290.66Z" fill="#C9F5C0"/>
<path d="M1237.33 831.655C1237.03 827.096 1240.19 823.033 1244.68 822.206L1705.43 737.381C1710.52 736.445 1715.34 739.976 1715.99 745.106L1747.73 996.678C1748.33 1001.43 1745.1 1005.82 1740.39 1006.66L1264.7 1091.88C1259.42 1092.83 1254.49 1088.98 1254.13 1083.62L1237.33 831.655Z" fill="#C9F5C0"/>
<path d="M1622.85 778.966C1616.85 781.666 1614.25 788.866 1617.25 794.266C1625.45 809.066 1629.45 815.866 1634.25 822.866C1637.25 827.366 1641.55 834.366 1643.75 838.266C1649.35 848.466 1654.35 851.566 1661.75 849.466C1663.75 848.966 1666.55 847.166 1667.95 845.466C1673.65 838.666 1670.55 828.466 1657.15 810.466C1653.65 805.766 1648.25 797.566 1645.15 792.266C1642.05 786.966 1638.25 781.766 1636.65 780.666C1632.85 777.966 1626.85 777.166 1622.85 778.966Z" fill="#5CB86D"/>
<path d="M1650.4 760.402C1645.7 762.502 1643 766.502 1643 771.602C1643 775.502 1643.7 776.702 1651 785.402C1655.5 790.702 1660.4 795.702 1662 796.502C1669.2 800.202 1677.8 796.502 1679.5 788.802C1680.7 783.602 1677.9 777.902 1670 769.602C1663.2 762.402 1658.2 758.902 1654.8 759.002C1654.1 759.102 1652.1 759.702 1650.4 760.402Z" fill="#5CB86D"/>
</svg>
